<svg width="15" height="15" viewBox="0 0 15 15" fill="none" xmlns="http://www.w3.org/2000/svg">
<path d="M7.59973 7.2625C7.58098 7.2625 7.56848 7.2625 7.54973 7.2625C7.51848 7.25625 7.47473 7.25625 7.43723 7.2625C5.62473 7.20625 4.25598 5.78125 4.25598 4.025C4.25598 2.2375 5.71223 0.78125 7.49973 0.78125C9.28723 0.78125 10.7435 2.2375 10.7435 4.025C10.7372 5.78125 9.36223 7.20625 7.61848 7.2625C7.61223 7.2625 7.60598 7.2625 7.59973 7.2625ZM7.49973 1.71875C6.23098 1.71875 5.19348 2.75625 5.19348 4.025C5.19348 5.275 6.16848 6.28125 7.41223 6.325C7.44348 6.31875 7.53098 6.31875 7.61223 6.325C8.83723 6.26875 9.79973 5.2625 9.80598 4.025C9.80598 2.75625 8.76848 1.71875 7.49973 1.71875Z" fill="#969696"/>
<path d="M7.60601 14.0938C6.38101 14.0938 5.14976 13.7812 4.21851 13.1562C3.34976 12.5813 2.87476 11.7938 2.87476 10.9375C2.87476 10.0812 3.34976 9.2875 4.21851 8.70625C6.09351 7.4625 9.13101 7.4625 10.9935 8.70625C11.856 9.28125 12.3373 10.0687 12.3373 10.925C12.3373 11.7812 11.8623 12.575 10.9935 13.1562C10.056 13.7812 8.83101 14.0938 7.60601 14.0938ZM4.73726 9.49375C4.13726 9.89375 3.81226 10.4062 3.81226 10.9438C3.81226 11.475 4.14351 11.9875 4.73726 12.3812C6.29351 13.425 8.91851 13.425 10.4748 12.3812C11.0748 11.9812 11.3998 11.4688 11.3998 10.9312C11.3998 10.4 11.0685 9.8875 10.4748 9.49375C8.91851 8.45625 6.29351 8.45625 4.73726 9.49375Z" fill="#969696"/>
</svg>
