<svg width="15" height="15" viewBox="0 0 15 15" fill="none" xmlns="http://www.w3.org/2000/svg">
<path d="M3.41872 6.71875C2.97497 6.71875 2.52497 6.55625 2.18122 6.225C1.03122 5.13125 0.568725 3.9375 0.837475 2.76875C1.15622 1.39375 2.36247 0.78125 3.41872 0.78125C4.47497 0.78125 5.68748 1.4 5.99998 2.76875C6.26873 3.9375 5.79997 5.13125 4.65622 6.225C4.31247 6.55625 3.86872 6.71875 3.41872 6.71875ZM1.74997 2.98125C1.51247 4.025 2.20622 4.95 2.83122 5.54375C3.16247 5.8625 3.68122 5.85625 4.01247 5.54375C4.63747 4.95 5.33122 4.025 5.08747 2.975C4.87498 2.05 4.05622 1.71875 3.42497 1.71875C2.78747 1.71875 1.96872 2.05 1.74997 2.98125Z" fill="#969696"/>
<path d="M3.44373 3.875C3.09998 3.875 2.81873 3.59375 2.81873 3.25C2.81873 2.90625 3.09373 2.625 3.44373 2.625H3.44998C3.79373 2.625 4.07498 2.90625 4.07498 3.25C4.07498 3.59375 3.79373 3.875 3.44373 3.875Z" fill="#969696"/>
<path d="M11.5562 14.2188C11.1125 14.2188 10.6625 14.0563 10.3125 13.725C9.15623 12.6313 8.68748 11.4375 8.96248 10.2625C9.28123 8.89377 10.4937 8.27502 11.5562 8.27502C12.6187 8.27502 13.8312 8.89377 14.15 10.2625C14.4187 11.4313 13.95 12.6313 12.7937 13.7188C12.45 14.0563 12.0062 14.2188 11.5562 14.2188ZM11.5562 9.21877C10.9187 9.21877 10.0937 9.55002 9.87498 10.4813C9.63123 11.525 10.3312 12.4563 10.9562 13.05C11.2875 13.3688 11.8125 13.3688 12.15 13.05C12.775 12.4563 13.475 11.5313 13.2312 10.4875C13.025 9.55002 12.2 9.21877 11.5562 9.21877Z" fill="#969696"/>
<path d="M11.5812 11.375C11.2375 11.375 10.9562 11.0938 10.9562 10.75C10.9562 10.4062 11.2312 10.125 11.5812 10.125H11.5875C11.9312 10.125 12.2125 10.4062 12.2125 10.75C12.2125 11.0938 11.925 11.375 11.5812 11.375Z" fill="#969696"/>
<path d="M7.50002 12.3438H5.82502C5.10002 12.3438 4.46877 11.9062 4.21877 11.2312C3.96252 10.5562 4.15002 9.8125 4.69377 9.33125L9.68752 4.9625C9.98752 4.7 9.99377 4.34375 9.90627 4.1C9.81252 3.85625 9.57502 3.59375 9.17502 3.59375H7.50002C7.24377 3.59375 7.03127 3.38125 7.03127 3.125C7.03127 2.86875 7.24377 2.65625 7.50002 2.65625H9.17502C9.90002 2.65625 10.5313 3.09375 10.7813 3.76875C11.0375 4.44375 10.85 5.1875 10.3063 5.66875L5.31252 10.0375C5.01252 10.3 5.00627 10.6562 5.09377 10.9C5.18752 11.1438 5.42502 11.4062 5.82502 11.4062H7.50002C7.75627 11.4062 7.96877 11.6187 7.96877 11.875C7.96877 12.1313 7.75627 12.3438 7.50002 12.3438Z" fill="#969696"/>
<path d="M7.50002 12.3438H5.82502C5.10002 12.3438 4.46877 11.9062 4.21877 11.2312C3.96252 10.5562 4.15002 9.8125 4.69377 9.33125L9.68752 4.9625C9.98752 4.7 9.99377 4.34375 9.90627 4.1C9.81252 3.85625 9.57502 3.59375 9.17502 3.59375H7.50002C7.24377 3.59375 7.03127 3.38125 7.03127 3.125C7.03127 2.86875 7.24377 2.65625 7.50002 2.65625H9.17502C9.90002 2.65625 10.5313 3.09375 10.7813 3.76875C11.0375 4.44375 10.85 5.1875 10.3063 5.66875L5.31252 10.0375C5.01252 10.3 5.00627 10.6562 5.09377 10.9C5.18752 11.1438 5.42502 11.4062 5.82502 11.4062H7.50002C7.75627 11.4062 7.96877 11.6187 7.96877 11.875C7.96877 12.1313 7.75627 12.3438 7.50002 12.3438Z" fill="#969696"/>
</svg>
