<svg width="25" height="24" viewBox="0 0 25 24" fill="none" xmlns="http://www.w3.org/2000/svg">
<path d="M8.5 1.25C5.87665 1.25 3.75 3.37665 3.75 6V17C3.75 17.4142 4.08579 17.75 4.5 17.75C4.91421 17.75 5.25 17.4142 5.25 17V6C5.25 4.20507 6.70507 2.75 8.5 2.75H17.5C17.9142 2.75 18.25 2.41421 18.25 2C18.25 1.58579 17.9142 1.25 17.5 1.25H8.5Z" fill="#EBEBEB"/>
<path d="M7.5 6C7.5 5.44771 7.94771 5 8.5 5H18.5C19.0523 5 19.5 5.44771 19.5 6V20C19.5 20.5523 19.0523 21 18.5 21H8.5C7.94771 21 7.5 20.5523 7.5 20V6Z" stroke="#EBEBEB" stroke-width="2"/>
</svg>
