<svg fill="none" height="18" viewBox="0 0 18 18" width="18" xmlns="http://www.w3.org/2000/svg">
    <path
        d="M8.90995 11.2423C8.76745 11.2423 8.62495 11.1898 8.51245 11.0773L6.59245 9.15734C6.37495 8.93984 6.37495 8.57984 6.59245 8.36234C6.80995 8.14484 7.16995 8.14484 7.38745 8.36234L8.90995 9.88484L10.4324 8.36234C10.6499 8.14484 11.0099 8.14484 11.2274 8.36234C11.4449 8.57984 11.4449 8.93984 11.2274 9.15734L9.30745 11.0773C9.19495 11.1898 9.05245 11.2423 8.90995 11.2423Z"
        fill="#85F162" />
    <path
        d="M8.91003 11.19C8.60253 11.19 8.34753 10.935 8.34753 10.6275V3C8.34753 2.6925 8.60253 2.4375 8.91003 2.4375C9.21753 2.4375 9.47253 2.6925 9.47253 3V10.6275C9.47253 10.935 9.21753 11.19 8.91003 11.19Z"
        fill="#85F162" />
    <path
        d="M9 15.6973C5.1375 15.6973 2.4375 12.9973 2.4375 9.13477C2.4375 8.82727 2.6925 8.57227 3 8.57227C3.3075 8.57227 3.5625 8.82727 3.5625 9.13477C3.5625 12.3373 5.7975 14.5723 9 14.5723C12.2025 14.5723 14.4375 12.3373 14.4375 9.13477C14.4375 8.82727 14.6925 8.57227 15 8.57227C15.3075 8.57227 15.5625 8.82727 15.5625 9.13477C15.5625 12.9973 12.8625 15.6973 9 15.6973Z"
        fill="#85F162" />
</svg>
