<svg width="28" height="28" viewBox="0 0 28 28" fill="none" xmlns="http://www.w3.org/2000/svg">
<path d="M21.047 15.8083C20.557 16.2867 20.277 16.975 20.347 17.71C20.452 18.97 21.607 19.8917 22.867 19.8917H25.0837V21.28C25.0837 23.695 23.112 25.6667 20.697 25.6667H7.30366C4.88866 25.6667 2.91699 23.695 2.91699 21.28V13.4284C2.91699 11.0134 4.88866 9.04169 7.30366 9.04169H20.697C23.112 9.04169 25.0837 11.0134 25.0837 13.4284V15.1084H22.727C22.0737 15.1084 21.4787 15.365 21.047 15.8083Z" stroke="white" stroke-width="1.5" stroke-linecap="round" stroke-linejoin="round"/>
<path d="M2.91699 14.4783V9.14673C2.91699 7.75839 3.76866 6.52168 5.06366 6.03168L14.327 2.53168C15.7737 1.98334 17.3253 3.05671 17.3253 4.60838V9.0417" stroke="white" stroke-width="1.5" stroke-linecap="round" stroke-linejoin="round"/>
<path d="M26.3189 16.2985V18.7019C26.3189 19.3436 25.8056 19.8686 25.1523 19.8919H22.8656C21.6056 19.8919 20.4506 18.9702 20.3456 17.7102C20.2756 16.9752 20.5556 16.2869 21.0456 15.8086C21.4773 15.3652 22.0723 15.1086 22.7256 15.1086H25.1523C25.8056 15.1319 26.3189 15.6569 26.3189 16.2985Z" stroke="white" stroke-width="1.5" stroke-linecap="round" stroke-linejoin="round"/>
<path d="M8.16699 14H16.3337" stroke="white" stroke-width="1.5" stroke-linecap="round" stroke-linejoin="round"/>
</svg>
