<svg width="15" height="15" viewBox="0 0 15 15" fill="none" xmlns="http://www.w3.org/2000/svg">
<path d="M4.03111 5.31261C3.99361 5.31261 3.95611 5.30635 3.91861 5.3001C3.79986 5.26885 3.69361 5.19387 3.63111 5.08762L2.65611 3.48762C2.41861 3.10012 2.34361 2.63761 2.45611 2.18761C2.56236 1.74386 2.83736 1.3626 3.23111 1.1251C3.61861 0.887604 4.08111 0.812599 4.53111 0.925099C4.98111 1.03135 5.35611 1.30634 5.59361 1.70009L6.56861 3.30013C6.70611 3.51888 6.63111 3.80636 6.41236 3.94386L4.27486 5.24387C4.19986 5.28762 4.11861 5.31261 4.03111 5.31261ZM4.11861 1.81263C3.97486 1.81263 3.83736 1.85012 3.71861 1.92512C3.54361 2.03137 3.41861 2.20635 3.36861 2.40635C3.31861 2.6126 3.34986 2.81885 3.45611 2.99385L4.18736 4.19388L5.52486 3.38134L4.79361 2.18136C4.68736 2.00636 4.51236 1.88136 4.31236 1.83136C4.24361 1.81886 4.18111 1.81263 4.11861 1.81263Z" fill="#969696"/>
<path d="M7.1374 14.1313C6.9499 14.1313 6.76241 14.1063 6.58116 14.05C6.03116 13.8875 5.58741 13.5125 5.33116 12.9813L4.0499 10.3688C3.36865 8.9813 3.84991 7.33129 5.16866 6.52504L7.14365 5.32505C8.4624 4.5188 10.1562 4.85003 11.0749 6.09378L12.8062 8.43128C13.1562 8.90628 13.2874 9.47503 13.1812 10.0313C13.0749 10.5875 12.7374 11.0688 12.2312 11.375L8.21241 13.8188C7.87491 14.025 7.50615 14.1313 7.1374 14.1313ZM8.6874 5.82504C8.3249 5.82504 7.9624 5.92503 7.6249 6.12503L5.6499 7.32502C4.74365 7.87502 4.41865 9.00628 4.88115 9.95628L6.16241 12.5688C6.30616 12.8563 6.54366 13.0625 6.83741 13.15C7.13116 13.2375 7.44365 13.1876 7.7124 13.0251L11.7312 10.5813C12.0062 10.4125 12.1874 10.1563 12.2499 9.8563C12.3062 9.5563 12.2374 9.25004 12.0437 8.99379L10.3124 6.6563C9.91866 6.11255 9.3124 5.82504 8.6874 5.82504Z" fill="#969696"/>
<path d="M4.79995 7.7687C4.76245 7.7687 4.72496 7.76244 4.68746 7.75619C4.56871 7.72494 4.46245 7.64996 4.39995 7.54371L3.09996 5.40622C2.96246 5.18747 3.03746 4.89995 3.25621 4.76245L6.45621 2.81246C6.67496 2.68121 6.96871 2.74996 7.09996 2.96871L8.39996 5.1062C8.46246 5.21245 8.48746 5.33745 8.45621 5.46245C8.42496 5.5812 8.34996 5.68746 8.24371 5.74996L5.04371 7.69996C4.96871 7.74996 4.8812 7.7687 4.79995 7.7687ZM4.14371 5.32497L4.9562 6.66244L7.35621 5.19996L6.54371 3.86245L4.14371 5.32497Z" fill="#969696"/>
<path d="M9.97494 12.6688C9.81869 12.6688 9.66244 12.5875 9.57494 12.4438L8.54369 10.75C8.40619 10.5313 8.48119 10.2438 8.69994 10.1063C8.91869 9.97503 9.21244 10.0438 9.34369 10.2625L10.3749 11.9563C10.5124 12.175 10.4374 12.4625 10.2187 12.6C10.1437 12.6438 10.0562 12.6688 9.97494 12.6688Z" fill="#969696"/>
<path d="M8.3749 13.6437C8.21865 13.6437 8.0624 13.5624 7.9749 13.4186L6.94365 11.7249C6.80615 11.5062 6.88115 11.2186 7.0999 11.0811C7.31865 10.9499 7.6124 11.0186 7.74365 11.2374L8.7749 12.9311C8.9124 13.1499 8.8374 13.4374 8.61865 13.5749C8.54365 13.6186 8.45615 13.6437 8.3749 13.6437Z" fill="#969696"/>
<path d="M11.575 11.6938C11.4187 11.6938 11.2625 11.6125 11.175 11.4688L10.1437 9.77507C10.0062 9.55632 10.0812 9.2688 10.3 9.1313C10.5187 9.00005 10.8125 9.0688 10.9437 9.28755L11.975 10.9813C12.1125 11.2001 12.0375 11.4875 11.8187 11.625C11.7437 11.6688 11.6625 11.6938 11.575 11.6938Z" fill="#969696"/>
</svg>
