<svg width="28" height="28" viewBox="0 0 28 28" fill="none" xmlns="http://www.w3.org/2000/svg">
<path d="M11.083 16.0417C11.083 17.1733 11.958 18.0833 13.0314 18.0833H15.2247C16.158 18.0833 16.9163 17.29 16.9163 16.2983C16.9163 15.2367 16.4497 14.8517 15.7614 14.6067L12.2497 13.3817C11.5613 13.1367 11.0947 12.7633 11.0947 11.69C11.0947 10.71 11.853 9.905 12.7863 9.905H14.9797C16.053 9.905 16.928 10.815 16.928 11.9467" stroke="white" stroke-width="1.5" stroke-linecap="round" stroke-linejoin="round"/>
<path d="M14 8.75V19.25" stroke="white" stroke-width="1.5" stroke-linecap="round" stroke-linejoin="round"/>
<path d="M25.6663 14C25.6663 20.44 20.4397 25.6667 13.9997 25.6667C7.55967 25.6667 2.33301 20.44 2.33301 14C2.33301 7.56001 7.55967 2.33334 13.9997 2.33334" stroke="white" stroke-width="1.5" stroke-linecap="round" stroke-linejoin="round"/>
<path d="M25.6667 7.00001V2.33334H21" stroke="white" stroke-width="1.5" stroke-linecap="round" stroke-linejoin="round"/>
<path d="M19.833 8.16668L25.6663 2.33334" stroke="white" stroke-width="1.5" stroke-linecap="round" stroke-linejoin="round"/>
</svg>
