<svg width="15" height="15" viewBox="0 0 15 15" fill="none" xmlns="http://www.w3.org/2000/svg">
<path d="M5.00002 13.5937C4.98127 13.5937 4.96252 13.5937 4.95002 13.5937C4.69377 13.5625 4.50627 13.3312 4.53752 13.075L5.78752 1.82496C5.81877 1.56871 6.05002 1.38746 6.30627 1.41246C6.56252 1.44371 6.75002 1.67496 6.71877 1.93121L5.46877 13.1812C5.43752 13.4187 5.23752 13.5937 5.00002 13.5937Z" fill="#969696"/>
<path d="M8.75002 13.5937C8.73127 13.5937 8.71252 13.5937 8.70002 13.5937C8.44377 13.5625 8.25627 13.3312 8.28752 13.075L9.53752 1.82496C9.56877 1.56871 9.79377 1.38746 10.0563 1.41246C10.3125 1.44371 10.5 1.67496 10.4688 1.93121L9.21877 13.1812C9.18752 13.4187 8.98752 13.5937 8.75002 13.5937Z" fill="#969696"/>
<path d="M13.4375 6.09375H2.1875C1.93125 6.09375 1.71875 5.88125 1.71875 5.625C1.71875 5.36875 1.93125 5.15625 2.1875 5.15625H13.4375C13.6937 5.15625 13.9062 5.36875 13.9062 5.625C13.9062 5.88125 13.6937 6.09375 13.4375 6.09375Z" fill="#969696"/>
<path d="M12.8125 9.84375H1.5625C1.30625 9.84375 1.09375 9.63125 1.09375 9.375C1.09375 9.11875 1.30625 8.90625 1.5625 8.90625H12.8125C13.0687 8.90625 13.2812 9.11875 13.2812 9.375C13.2812 9.63125 13.0687 9.84375 12.8125 9.84375Z" fill="#969696"/>
</svg>
