<svg width="18" height="18" viewBox="0 0 18 18" fill="none" xmlns="http://www.w3.org/2000/svg">
<path d="M6 4.3125C5.6925 4.3125 5.4375 4.0575 5.4375 3.75V1.5C5.4375 1.1925 5.6925 0.9375 6 0.9375C6.3075 0.9375 6.5625 1.1925 6.5625 1.5V3.75C6.5625 4.0575 6.3075 4.3125 6 4.3125Z" fill="#969696"/>
<path d="M12 4.3125C11.6925 4.3125 11.4375 4.0575 11.4375 3.75V1.5C11.4375 1.1925 11.6925 0.9375 12 0.9375C12.3075 0.9375 12.5625 1.1925 12.5625 1.5V3.75C12.5625 4.0575 12.3075 4.3125 12 4.3125Z" fill="#969696"/>
<path d="M6.375 10.875C6.2775 10.875 6.18 10.8525 6.09 10.815C5.9925 10.7775 5.91751 10.725 5.84251 10.6575C5.70751 10.515 5.625 10.32 5.625 10.125C5.625 9.93001 5.70751 9.73502 5.84251 9.59252C5.91751 9.52502 6 9.4725 6.09 9.435C6.27 9.36 6.48 9.36 6.66 9.435C6.75 9.4725 6.83249 9.52502 6.90749 9.59252C6.93749 9.63002 6.97499 9.66752 6.99749 9.70502C7.02749 9.75002 7.05001 9.79501 7.06501 9.84001C7.08751 9.88501 7.10251 9.93 7.11001 9.975C7.11751 10.0275 7.125 10.08 7.125 10.125C7.125 10.32 7.04249 10.515 6.90749 10.6575C6.83249 10.725 6.75 10.7775 6.66 10.815C6.57 10.8525 6.4725 10.875 6.375 10.875Z" fill="#969696"/>
<path d="M9 10.875C8.9025 10.875 8.805 10.8525 8.715 10.815C8.6175 10.7775 8.54251 10.725 8.46751 10.6575C8.33251 10.515 8.25 10.32 8.25 10.125C8.25 10.08 8.25749 10.0275 8.26499 9.97499C8.27249 9.92999 8.28749 9.885 8.30999 9.84C8.32499 9.795 8.34751 9.75 8.37751 9.705C8.40751 9.6675 8.43751 9.63001 8.46751 9.59251C8.74501 9.31501 9.24749 9.31501 9.53249 9.59251C9.56249 9.63001 9.59249 9.6675 9.62249 9.705C9.65249 9.75 9.67501 9.795 9.69001 9.84C9.71251 9.885 9.72751 9.92999 9.73501 9.97499C9.74251 10.0275 9.75 10.08 9.75 10.125C9.75 10.32 9.66749 10.515 9.53249 10.6575C9.38999 10.7925 9.2025 10.875 9 10.875Z" fill="#969696"/>
<path d="M6.375 13.5C6.2775 13.5 6.18 13.4775 6.09 13.44C6 13.4025 5.91751 13.35 5.84251 13.2825C5.70751 13.14 5.625 12.945 5.625 12.75C5.625 12.705 5.63249 12.6525 5.63999 12.6075C5.64749 12.555 5.66249 12.51 5.68499 12.465C5.69999 12.42 5.72251 12.375 5.75251 12.33C5.77501 12.2925 5.81251 12.255 5.84251 12.2175C5.91751 12.15 6 12.0975 6.09 12.06C6.27 11.985 6.48 11.985 6.66 12.06C6.75 12.0975 6.83249 12.15 6.90749 12.2175C6.93749 12.255 6.97499 12.2925 6.99749 12.33C7.02749 12.375 7.05001 12.42 7.06501 12.465C7.08751 12.51 7.10251 12.555 7.11001 12.6075C7.11751 12.6525 7.125 12.705 7.125 12.75C7.125 12.945 7.04249 13.14 6.90749 13.2825C6.83249 13.35 6.75 13.4025 6.66 13.44C6.57 13.4775 6.4725 13.5 6.375 13.5Z" fill="#969696"/>
<path d="M15.375 7.37997H2.625C2.3175 7.37997 2.0625 7.12497 2.0625 6.81747C2.0625 6.50997 2.3175 6.25497 2.625 6.25497H15.375C15.6825 6.25497 15.9375 6.50997 15.9375 6.81747C15.9375 7.12497 15.6825 7.37997 15.375 7.37997Z" fill="#969696"/>
<path d="M11.8647 17.085C11.5797 17.085 11.3097 16.98 11.1147 16.785C10.8822 16.5525 10.7772 16.215 10.8297 15.8625L10.9722 14.85C11.0097 14.5875 11.1672 14.2725 11.3547 14.085L14.0097 11.43C14.3697 11.07 14.7222 10.8825 15.1047 10.845C15.5772 10.8 16.0347 10.995 16.4697 11.43C16.9272 11.8875 17.5422 12.8175 16.4697 13.89L13.8147 16.545C13.6272 16.7325 13.3122 16.89 13.0497 16.9275L12.0372 17.07C11.9772 17.0775 11.9247 17.085 11.8647 17.085ZM15.2322 11.9625C15.2247 11.9625 15.2172 11.9625 15.2097 11.9625C15.1047 11.97 14.9622 12.0675 14.8047 12.225L12.1497 14.88C12.1272 14.9025 12.0897 14.9775 12.0897 15.0075L11.9547 15.945L12.8922 15.81C12.9222 15.8025 12.9972 15.765 13.0197 15.7425L15.6747 13.0875C16.0047 12.7575 16.0497 12.5925 15.6747 12.2175C15.5547 12.105 15.3822 11.9625 15.2322 11.9625Z" fill="#969696"/>
<path d="M15.6904 14.4374C15.6379 14.4374 15.5854 14.4299 15.5404 14.4149C14.5504 14.1374 13.7629 13.35 13.4854 12.36C13.4029 12.06 13.5754 11.7524 13.8754 11.6624C14.1754 11.5799 14.4829 11.7525 14.5729 12.0525C14.7454 12.6675 15.2329 13.1549 15.8479 13.3274C16.1479 13.4099 16.3204 13.725 16.2379 14.025C16.1629 14.2725 15.9379 14.4374 15.6904 14.4374Z" fill="#969696"/>
<path d="M9 17.0625H6C3.2625 17.0625 1.6875 15.4875 1.6875 12.75V6.375C1.6875 3.6375 3.2625 2.0625 6 2.0625H12C14.7375 2.0625 16.3125 3.6375 16.3125 6.375V9C16.3125 9.3075 16.0575 9.5625 15.75 9.5625C15.4425 9.5625 15.1875 9.3075 15.1875 9V6.375C15.1875 4.23 14.145 3.1875 12 3.1875H6C3.855 3.1875 2.8125 4.23 2.8125 6.375V12.75C2.8125 14.895 3.855 15.9375 6 15.9375H9C9.3075 15.9375 9.5625 16.1925 9.5625 16.5C9.5625 16.8075 9.3075 17.0625 9 17.0625Z" fill="#969696"/>
</svg>
