<svg width="21" height="21" viewBox="0 0 21 21" fill="none" xmlns="http://www.w3.org/2000/svg">
<path d="M8.75 0.449946C9.44 -0.140054 10.57 -0.140054 11.27 0.449946L12.85 1.80995C13.15 2.06995 13.71 2.27995 14.11 2.27995H15.81C16.87 2.27995 17.74 3.14995 17.74 4.20995V5.90995C17.74 6.29995 17.95 6.86995 18.21 7.16995L19.57 8.74995C20.16 9.43995 20.16 10.5699 19.57 11.2699L18.21 12.8499C17.95 13.1499 17.74 13.7099 17.74 14.1099V15.8099C17.74 16.8699 16.87 17.7399 15.81 17.7399H14.11C13.72 17.7399 13.15 17.9499 12.85 18.2099L11.27 19.5699C10.58 20.1599 9.45 20.1599 8.75 19.5699L7.17 18.2099C6.87 17.9499 6.31 17.7399 5.91 17.7399H4.18C3.12 17.7399 2.25 16.8699 2.25 15.8099V14.0999C2.25 13.7099 2.04 13.1499 1.79 12.8499L0.440005 11.2599C-0.139995 10.5699 -0.139995 9.44995 0.440005 8.75995L1.79 7.16995C2.04 6.86995 2.25 6.30995 2.25 5.91995V4.19995C2.25 3.13995 3.12 2.26995 4.18 2.26995H5.91C6.3 2.26995 6.87 2.05995 7.17 1.79995L8.75 0.449946Z" fill="#1CD1B2"/>
</svg>
