<svg fill="none" height="10" viewBox="0 0 12 10" width="12" xmlns="http://www.w3.org/2000/svg">
    <path clip-rule="evenodd" d="M3.40856 9.06145L0.482394 6.11869C0.0293063 5.6576 0.0293063 4.91842 0.482394 4.45733C0.70167 4.23738 0.999427 4.11388 1.30995 4.11388C1.62046 4.11388 1.91822 4.23738 2.13747 4.45733L4.2347 6.56851L9.84331 0.926833C10.062 0.70643 10.3598 0.582031 10.6704 0.582031C10.981 0.582031 11.2787 0.70643 11.4975 0.926833C11.9525 1.38702 11.9525 2.128 11.4975 2.58819L5.06175 9.0637C4.8429 9.2841 4.54519 9.40805 4.23468 9.40805C3.92416 9.40805 3.62646 9.2841 3.4076 9.0637L3.40856 9.06145Z"
        fill="white"
        fill-rule="evenodd" />
</svg>
