<svg width="15" height="15" viewBox="0 0 15 15" fill="none" xmlns="http://www.w3.org/2000/svg">
<path d="M9.74373 8.13125C7.71873 8.13125 6.06873 6.48125 6.06873 4.45625C6.06873 2.43125 7.71873 0.78125 9.74373 0.78125C11.7687 0.78125 13.4187 2.43125 13.4187 4.45625C13.4187 6.48125 11.7687 8.13125 9.74373 8.13125ZM9.74373 1.71875C8.23748 1.71875 7.00623 2.94375 7.00623 4.45625C7.00623 5.96875 8.23123 7.19375 9.74373 7.19375C11.2562 7.19375 12.4812 5.96875 12.4812 4.45625C12.4812 2.94375 11.25 1.71875 9.74373 1.71875Z" fill="#969696"/>
<path d="M3.97516 12.6188C2.65641 12.6188 1.58142 11.5438 1.58142 10.225C1.58142 8.9063 2.65641 7.8313 3.97516 7.8313C5.29391 7.8313 6.36892 8.9063 6.36892 10.225C6.36892 11.5438 5.29391 12.6188 3.97516 12.6188ZM3.97516 8.7688C3.17516 8.7688 2.51892 9.4188 2.51892 10.225C2.51892 11.025 3.16891 11.6813 3.97516 11.6813C4.77516 11.6813 5.43142 11.0313 5.43142 10.225C5.43142 9.42505 4.77516 8.7688 3.97516 8.7688Z" fill="#969696"/>
<path d="M10.3875 14.2188C9.24379 14.2188 8.31879 13.2875 8.31879 12.15C8.31879 11.0063 9.25004 10.0813 10.3875 10.0813C11.525 10.0813 12.4563 11.0125 12.4563 12.15C12.4563 13.2875 11.525 14.2188 10.3875 14.2188ZM10.3875 11.0125C9.76254 11.0125 9.25629 11.5188 9.25629 12.1438C9.25629 12.7688 9.76254 13.275 10.3875 13.275C11.0125 13.275 11.5188 12.7688 11.5188 12.1438C11.5188 11.525 11.0125 11.0125 10.3875 11.0125Z" fill="#969696"/>
</svg>
